HIERARCHY
ROOT Hips
{
  OFFSET -31.5692 30.0904 122.763
  CHANNELS 6 Xposition Yposition Zposition Zrotation Xrotation Yrotation
  JOINT LeftUpLeg
  {
    OFFSET 8.64259 1.95398 -2.38835
    CHANNELS 3 Zrotation Xrotation Yrotation
    JOINT LeftLeg
    {
      OFFSET 43.7702 0 0
      CHANNELS 3 Zrotation Xrotation Yrotation
      JOINT LeftFoot
      {
        OFFSET 40.6238 0 0
        CHANNELS 3 Zrotation Xrotation Yrotation
        JOINT LeftToeBase
        {
          OFFSET 12.7242 0 0
          CHANNELS 3 Zrotation Xrotation Yrotation
          End Site
          {
            OFFSET 0 0 0
          }
        }
      }
    }
  }
  JOINT RightUpLeg
  {
    OFFSET -8.2249 1.95398 -2.59336
    CHANNELS 3 Zrotation Xrotation Yrotation
    JOINT RightLeg
    {
      OFFSET 43.5653 0 0
      CHANNELS 3 Zrotation Xrotation Yrotation
      JOINT RightFoot
      {
        OFFSET 40.6238 0 0
        CHANNELS 3 Zrotation Xrotation Yrotation
        JOINT RightToeBase
        {
          OFFSET 12.7242 0 0
          CHANNELS 3 Zrotation Xrotation Yrotation
          End Site
          {
            OFFSET 0 0 0
          }
        }
      }
    }
  }
  JOINT Spine
  {
    OFFSET 0.165834 0.87714 6.61349
    CHANNELS 3 Zrotation Xrotation Yrotation
    JOINT Spine1
    {
      OFFSET 7.38963 1.71661e-005 0
      CHANNELS 3 Zrotation Xrotation Yrotation
      JOINT Spine2
      {
        OFFSET 11.9445 1.14441e-005 0
        CHANNELS 3 Zrotation Xrotation Yrotation
        JOINT Spine3
        {
          OFFSET 14.7254 4.19617e-005 0
          CHANNELS 3 Zrotation Xrotation Yrotation
          JOINT Spine4
          {
            OFFSET 10.9679 0 0
            CHANNELS 3 Zrotation Xrotation Yrotation
            JOINT RightShoulder
            {
              OFFSET 2.46616 -1.6653 3.69651
              CHANNELS 3 Zrotation Xrotation Yrotation
              JOINT RightArm
              {
                OFFSET 13.0012 0 0
                CHANNELS 3 Zrotation Xrotation Yrotation
                JOINT RightForeArm
                {
                  OFFSET 28.7848 1.62311e-005 0
                  CHANNELS 3 Zrotation Xrotation Yrotation
                  JOINT RightHand
                  {
                    OFFSET 26.5688 1.62095e-005 0
                    CHANNELS 3 Zrotation Xrotation Yrotation
                    End Site
                    {
                      OFFSET 0 0 0
                    }
                  }
                }
              }
            }
            JOINT LeftShoulder
            {
              OFFSET 2.38034 -1.29275 -3.7523
              CHANNELS 3 Zrotation Xrotation Yrotation
              JOINT LeftArm
              {
                OFFSET 16.3182 6.07031e-005 0
                CHANNELS 3 Zrotation Xrotation Yrotation
                JOINT LeftForeArm
                {
                  OFFSET 27.0901 0 0
                  CHANNELS 3 Zrotation Xrotation Yrotation
                  JOINT LeftHand
                  {
                    OFFSET 24.5451 1.51738e-005 0
                    CHANNELS 3 Zrotation Xrotation Yrotation
                    End Site
                    {
                      OFFSET 0 0 0
                    }
                  }
                }
              }
            }
            JOINT Neck
            {
              OFFSET 5.0226 -0.0266342 0
              CHANNELS 3 Zrotation Xrotation Yrotation
              JOINT Head
              {
                OFFSET 6.69364 2.86102e-005 0
                CHANNELS 3 Zrotation Xrotation Yrotation
                End Site
                {
                  OFFSET 0 0 0
                }
              }
            }
          }
        }
      }
    }
  }
}
MOTION
Frames:	18
Frame Time:	0.0416667
-315.29 91.4853 304.592 -102.176 -41.7439 -98.629 -170.553 3.51723 91.5255 -41.0128 18.6493 -1.28069 86.3744 16.0468 -0.295227 17.7637 -8.16315 5.88194 177.296 19.0699 89.2099 -16.727 -9.60906 -0.845613 52.8016 1.96548 1.75476 22.5786 2.55362 1.38362 0.863015 8.50875 -90.4814 9.86299 1.50185 -1.07611 -1.80758 1.45302 -1.14118 -24.3484 1.75581 -0.57491 -4.33576 1.75582 -0.574912 91.4332 -29.0853 -104.224 35.6542 -3.10591 -0.671023 5.41206 -12.9436 -12.273 -22.2245 0.288332 -9.02454 -90.1545 -51.4804 78.8142 -18.9163 2.42903 -30.7856 -1.02153 21.8536 -1.67881 12.4873 -3.05677 -27.7454 3.08461 -1.02318 -8.00314 -4.89131 0.324337 -0.188058 
-312.102 93.4483 302.674 -105.668 -41.226 -101.654 -171.246 0.338257 90.1905 -34.6282 18.6022 -1.201 80.3796 12.6386 0.436738 17.095 -8.05735 4.86784 173.263 17.5948 88.7606 -26.221 2.45612 1.01669 58.6935 -0.100062 -0.408691 21.8423 2.61862 2.38812 0.461962 8.39004 -89.9211 10.0918 0.95649 0.0773864 -1.57885 0.958979 0.0351959 -24.1163 0.889002 0.361292 -4.10367 0.889043 0.3613 89.5033 -32.1837 -106.908 34.5758 -3.87942 -2.43246 5.55226 -17.0047 -12.9576 -24.1093 0.404723 -10.1386 -87.0307 -47.1001 82.6842 -17.7911 2.35798 -22.4761 2.45149 13.4729 -9.54213 15.074 -3.98417 -29.0843 -4.02052 0.0935235 -11.5228 -3.10154 1.33195 2.25763 
-309.206 95.0395 301.222 -108.456 -41.3 -103.978 -172.781 -2.74842 88.2034 -28.0782 18.2405 -0.247592 75.9461 10.1533 1.19214 14.0489 -9.89369 5.02557 169.249 14.3572 86.5835 -45.5024 -1.04346 1.0988 64.1276 -1.87897 -0.274467 24.433 1.45099 2.35819 0.366016 8.27218 -90.0798 10.3324 0.692796 -0.213973 -1.33835 0.682696 -0.244258 -23.8752 0.725053 0.00414146 -3.86259 0.725072 0.00414501 91.3283 -29.2704 -104.342 33.6199 -5.50392 -5.35575 4.58578 -28.3112 -15.304 -23.1888 0.0542216 -10.8719 -86.6866 -49.3179 83.5821 -18.5828 3.26738 -12.3146 -0.397329 7.15759 -10.1068 15.0223 -4.11866 -30.0222 -10.6933 0.345965 -4.97961 -2.68829 0.615582 -0.746241 
-306.824 95.7445 299.291 -108.757 -41.7219 -104.857 -173.613 -2.45907 87.1181 -24.6926 18.5956 -0.188892 72.1197 7.96361 1.10266 13.8228 -9.96545 4.90843 166.813 6.52724 83.3514 -58.0252 -6.10594 -0.858095 65.1981 -2.0489 -0.695589 24.4724 1.57811 1.80008 0.448202 7.96547 -90.1142 10.9444 0.839532 -0.308255 -0.726302 0.825139 -0.344919 -23.2638 0.893335 -0.0416702 -3.25111 0.893342 -0.0416792 89.9063 -26.9662 -108.162 32.5732 -4.33885 -5.06982 3.14733 -27.6122 -16.5525 -24.8938 0.0595095 -10.3778 -84.8861 -52.3433 86.7065 -19.2579 6.09544 -2.07674 -1.97089 5.35096 -9.41756 11.0854 -2.74229 -26.755 -14.7386 0.197463 -1.4604 -4.01454 0.22077 -3.335 
-304.063 95.6022 296.623 -110.001 -40.7994 -106.853 -174.234 -1.12232 85.7445 -24.4108 17.6216 -0.540052 69.6419 6.42167 1.04409 13.2768 -10.1047 4.57282 165.237 -5.94239 79.0746 -55.558 -13.9463 -3.74991 65.105 -2.3641 -0.82 25.3478 0.931381 2.85812 0.874966 7.98377 -89.9931 10.9085 1.7453 -0.150842 -0.761254 1.73695 -0.22754 -23.3055 1.70992 0.380823 -3.2929 1.70994 0.380824 89.392 -24.9484 -110.147 31.1698 -4.61666 -6.55188 3.83272 -27.264 -15.6446 -24.0745 0.112179 -10.7541 -83.5465 -56.0651 89.0359 -19.1765 7.71257 5.50669 -4.16241 0.816524 -5.37257 8.01862 -1.53195 -20.5493 -15.5116 -1.10229 -0.611109 -4.71844 -1.06351 -4.90904 
-299.37 94.6579 289.557 -103.295 -40.8779 -98.9576 -173.078 12.2151 88.3315 -27.8508 18.7499 -1.03591 66.4971 4.18112 0.98061 12.2167 -10.6826 4.49397 170.402 -10.8129 86.5431 -42.4791 -18.3114 -4.28144 67.127 -4.0677 -1.70997 29.5671 -0.726567 2.04641 1.30151 7.47291 -90.3116 11.9442 2.4417 -0.873247 0.275158 2.40088 -0.979915 -22.2782 2.59123 -0.0985947 -2.26555 2.59123 -0.0985911 89.9837 -24.4119 -109.129 29.372 -4.07185 -10.8962 2.81881 -29.9982 -16.0469 -23.5375 -0.0507318 -10.835 -83.4645 -59.8814 89.4926 -19.2974 12.6538 9.84635 -7.45122 -16.2057 0.381882 5.3909 -0.969673 -11.3714 -13.7218 -2.09515 0.828996 -5.71582 -2.00733 -6.85637 
-293.448 94.1738 284.218 -104.355 -35.6954 -101.206 -174.625 11.3062 87.6228 -20.053 12.8061 -0.917558 58.9738 -0.554023 -0.828585 12.2314 -10.8546 4.82432 167.717 -14.4366 81.2132 -31.9294 -26.8866 -6.57565 72.563 -8.73329 -3.96897 39.8754 -5.29005 2.41055 1.62476 8.10133 -90.0714 10.6812 3.2027 -0.439348 -0.985901 3.18024 -0.580026 -23.5528 3.18651 0.544531 -3.54011 3.18651 0.544523 90.1487 -24.831 -108.585 26.4299 -3.88665 -15.6959 0.845257 -28.4844 -19.4752 -31.8462 -0.114022 -8.77031 -84.2752 -59.7681 88.3817 -25.2581 5.77774 12.7882 -2.40419 -13.5072 0.000384316 -1.88312 -0.539888 -7.13751 -8.92326 -1.28651 3.13944 -5.79432 -1.3763 -5.71089 
-287.249 94.0294 276.103 -102.616 -40.4388 -97.0767 -173.947 15.1574 91.6852 -12.39 8.27604 -1.29797 57.5652 -0.189114 -1.45403 13.2305 -11.9947 7.97064 170.895 -9.84262 88.8002 -27.9795 -19.9493 -2.31132 77.3784 -11.3007 -3.01638 31.9147 -1.94827 2.94919 1.0325 8.30629 -90.4707 10.2703 1.84196 -1.09891 -1.4 1.7918 -1.17894 -23.944 2.08705 -0.494366 -3.93132 2.08705 -0.494373 89.9663 -27.6716 -107.759 23.3371 -2.97171 -15.4976 -2.44413 -28.9239 -24.9584 -35.1581 0.476162 -10.8177 -86.4464 -56.3833 84.989 -26.7629 8.82008 7.6237 -4.42965 -3.76086 -0.00369608 -2.40824 -0.0779387 -9.44719 -3.76795 -0.592765 1.72305 -5.88149 -0.71651 -2.34343 
-282.033 95.4266 270.279 -106.833 -42.6608 -104.993 -171.846 13.4497 87.1232 -22.4146 -8.20207 -3.18115 61.4555 1.81473 -0.299229 12.7485 -10.9544 5.55975 169.038 -6.0034 84.8719 -30.4163 -19.2614 -2.65294 76.0335 -10.1077 -3.13952 29.212 -0.734724 2.72497 0.595551 8.81995 -89.9798 9.23453 1.19681 -0.0465302 -2.43587 1.19361 -0.0991706 -24.9752 1.15546 0.315359 -4.9626 1.15546 0.315354 90.2529 -29.1776 -106.57 26.2462 -3.38261 -9.44644 0.363862 -27.5823 -20.9675 -36.1938 0.145718 -9.25866 -87.9874 -52.8286 82.2411 -22.1842 10.8516 -4.19793 -6.19046 3.98304 -0.00799091 4.68858 -0.249883 -11.9162 -5.15226 -0.805253 -2.29862 -6.84302 -0.568855 -0.552543 
-278.564 96.364 265.545 -102.609 -44.8727 -101.603 -168.873 16.4509 90.0508 -44.0629 3.54776 -3.08807 67.7497 4.45207 0.688223 14.0576 -10.7029 6.54569 172.369 -0.460948 88.3415 -27.8717 -15.3543 -2.45137 72.6528 -7.44839 -1.92926 26.6189 0.508917 2.24315 0.322739 8.27883 -90.0724 10.3165 0.609859 -0.19719 -1.35429 0.600602 -0.22385 -23.8906 0.640938 -0.00476797 -3.87793 0.640921 -0.00478703 90.9431 -28.353 -105.487 34.2773 -3.70932 -1.03985 4.91388 -20.2931 -14.0243 -26.6583 0.40332 -10.1707 -87.8935 -50.9651 82.0558 -18.1211 9.35506 -11.5345 -4.68999 2.18491 -0.423951 9.1744 -1.13242 -15.9515 -10.1237 -0.0865852 -2.10082 -6.83479 0.0226098 0.270833 
-275.09 96.7502 262.412 -102.816 -44.9581 -101.619 -168.659 7.0557 94.0322 -53.3556 9.52917 -0.0372864 69.1414 5.32501 1.57898 13.8429 -10.7494 6.39494 172.872 2.04214 88.522 -26.5473 -15.8525 -2.32731 70.2624 -6.30819 -1.99917 25.1808 1.19136 2.07236 -0.0298093 8.06748 -90.21 10.7393 -0.156106 -0.403509 -0.931647 -0.17373 -0.396248 -23.4664 -0.0276462 -0.431771 -3.45374 -0.027626 -0.431767 91.87 -28.5554 -103.519 38.2396 -3.91218 5.96145 8.9277 -21.7645 -7.7992 -23.9286 -0.160873 -8.14363 -88.0319 -50.1175 81.6969 -17.8343 4.98794 -15.9838 -1.17315 1.68086 -3.74739 10.0014 -1.91415 -21.2593 -13.4262 1.23222 0.855721 -7.5877 1.16079 1.70694 
-271.067 96.6025 259.331 -102.834 -45.7983 -100.784 -169.02 -2.7293 97.0289 -50.7533 12.3952 2.79992 67.5849 4.32346 1.27115 13.4721 -9.47243 3.59048 173.799 5.29734 89.2918 -26.0902 -14.7826 -2.00477 67.734 -4.83958 -1.40516 24.3038 1.60989 1.98286 -0.524332 7.96869 -90.4184 10.9327 -1.23741 -0.715054 -0.737809 -1.26768 -0.659902 -23.2745 -0.965315 -1.05389 -3.26191 -0.965316 -1.05391 92.5871 -28.1308 -102.187 41.3846 -2.50095 11.7502 9.05064 -22.7201 -7.16258 -21.4053 -0.354945 -7.4149 -87.8357 -48.736 81.7418 -20.9396 0.819752 -22.2572 1.3401 6.01943 -4.55961 10.3679 -2.40517 -25.4758 -15.3109 2.89617 2.29704 -8.19136 2.79497 2.97543 
-265.6 96.0259 255.65 -101.614 -48.493 -99.8402 -168.95 -8.95893 98.2711 -41.802 18.6111 4.13496 67.6153 4.60938 -0.525577 16.3655 -8.66217 5.25008 174.579 10.6223 89.0326 -25.7024 -13.2409 -1.90203 64.5822 -2.62408 -1.24228 22.761 2.27598 2.1108 -1.10396 7.84142 -90.4745 11.1848 -2.41761 -0.707678 -0.484069 -2.44639 -0.600549 -23.032 -2.09312 -1.4018 -3.01936 -2.09314 -1.40181 92.2696 -28.417 -102.747 44.1913 -0.251744 14.6983 6.76514 -17.8713 -8.89308 -20.6766 -0.234004 -7.15027 -87.0248 -47.0729 82.6921 -22.3879 0.332048 -27.1863 2.35289 15.3725 -3.68212 11.9139 -3.01843 -28.0233 -15.3512 3.69012 2.82204 -9.00751 3.57137 3.04211 
-258.035 94.6039 250.73 -100.831 -49.726 -99.8014 -168.235 -11.1319 97.6614 -31.7604 22.1489 2.64678 73.2137 9.54443 1.24504 30.9718 -2.90202 12.1188 175.206 17.3411 87.3897 -25.7528 -13.3434 -2.29261 60.1807 0.851909 -0.462498 21.8507 2.48696 2.85611 -1.09535 7.94009 -90.4137 10.988 -2.37216 -0.597578 -0.680867 -2.39616 -0.492545 -23.2289 -2.08287 -1.28313 -3.21626 -2.08285 -1.28312 92.5727 -28.8639 -101.986 46.1352 -0.568609 12.9286 5.70509 -15.3861 -11.0069 -21.1467 0.419617 -10.5813 -87.9953 -46.4935 81.0718 -21.9413 1.42068 -30.8963 1.31793 22.4933 -2.39505 16.6202 -4.07448 -27.5966 -14.4139 2.62411 1.56546 -6.21043 2.55744 3.67228 
-249.365 93.0657 245.228 -101.582 -47.3018 -102.355 -169.032 -10.9226 92.9351 -28.5131 16.9944 0.0482615 82.8661 15.7721 0.123928 28.6135 -4.4012 12.1972 174.885 21.2071 84.3121 -21.1299 -16.6976 -2.49755 57.6768 1.90175 -0.723989 24.8211 1.08383 3.12983 -0.677065 8.29872 -90.0033 10.2871 -1.3502 0.121513 -1.38305 -1.34351 0.18082 -23.9245 -1.3243 -0.289966 -3.91187 -1.32429 -0.28997 92.4963 -31.3903 -101.355 42.3993 -2.12438 7.70377 4.59513 -21.118 -13.9568 -21.9434 0.534515 -12.3519 -88.6627 -46.3749 80.006 -21.7704 2.0991 -31.2722 1.20438 22.6484 -1.60043 15.0468 -3.35866 -25.9287 -10.538 1.78365 -3.37782 -6.33854 1.83794 4.60034 
-241.739 93.7202 240.581 -101.507 -40.5585 -102.554 -171.456 -6.84985 87.9199 -29.8173 8.70851 -1.27343 84.4243 14.84 -1.23889 21.2196 -8.94788 11.9898 173.486 18.4434 84.5704 -10.1391 -6.95881 -0.570926 62.0494 -3.70833 -1.248 25.6538 1.1117 1.5155 0.00460692 8.57828 -89.6928 9.71515 0.148167 0.596275 -1.95599 0.17427 0.589167 -24.4895 -0.0378921 0.613239 -4.4769 -0.0378834 0.613236 91.4375 -31.7573 -103.316 38.3416 -3.74247 0.748766 4.77643 -22.464 -14.1377 -22.8908 0.209457 -10.4914 -88.3476 -47.1627 80.656 -20.8925 4.25088 -26.0416 -0.730975 16.6829 -0.175354 7.91287 -1.20877 -20.7206 -10.5485 1.81047 -3.92633 -5.3299 1.95294 3.44777 
-235.755 95.7422 236.415 -99.5533 -36.4773 -98.8803 -172.814 -2.47404 87.205 -26.6253 4.49273 -0.891413 79.8964 11.6458 -0.670579 18.5436 -10.7187 12.0218 171.995 22.4437 86.8986 -25.5287 -1.15806 1.61278 64.2027 -2.90038 -0.882599 23.3205 2.27953 1.12097 0.450726 8.4799 -89.784 9.91263 0.996473 0.347797 -1.75798 1.01083 0.303594 -24.2951 0.845873 0.631217 -4.28246 0.84588 0.631212 90.0591 -30.5559 -106.432 35.4619 -4.55697 -5.17725 5.61919 -21.0618 -12.4824 -23.7917 0.175143 -9.79041 -87.913 -48.6221 81.6031 -21.1219 8.41987 -16.0053 -2.73663 7.35851 -0.00455905 4.31041 -0.266089 -14.3982 -11.3801 2.00077 -3.08614 -4.75034 2.114 2.12904 
-231.722 97.0428 232.833 -99.0617 -35.1287 -96.8627 -173.175 0.592132 88.3353 -24.9602 6.57 -0.365295 74.7674 8.55052 1.30649 18.9164 -10.2484 11.57 171.311 20.3646 87.2674 -45.2563 -12.2056 0.0766412 65.4571 -3.23916 -2.8851 23.8552 1.32772 3.90604 0.824497 8.32345 -89.8628 10.227 1.70553 0.126761 -1.44283 1.70945 0.0515384 -23.986 1.58855 0.6336 -3.97338 1.58856 0.633598 90.0043 -28.9496 -107.159 35.3726 -5.15398 -7.5436 3.51247 -23.57 -16.4681 -26.6177 0.186001 -9.82518 -87.9706 -50.7391 81.9004 -20.8326 10.7808 -2.3944 -5.13041 24.5764 -0.0097418 5.98938 0.238963 -12.5598 -11.7644 1.43718 -3.18838 -4.22235 1.56365 -0.0823066 
